<svg id="Layer_1" data-name="Layer 1" xmlns="http://www.w3.org/2000/svg" xmlns:xlink="http://www.w3.org/1999/xlink" viewBox="0 0 14 13"><defs><style>.cls-1{fill:none;}.cls-2{fill:#ccc;}.cls-2,.cls-4{fill-rule:evenodd;}.cls-3{clip-path:url(#clip-path);}.cls-4{fill:#242424;}</style><clipPath id="clip-path"><rect class="cls-1" x="-1.06" y="-1.83" width="10.95" height="15.07"/></clipPath></defs><path class="cls-2" d="M7,0a.32.32,0,0,0-.28.2L5.19,4.65H.3A.29.29,0,0,0,0,4.86a.28.28,0,0,0,.1.33L4.09,8l-1.52,4.6a.28.28,0,0,0,.1.33.3.3,0,0,0,.36,0l4-2.82,4,2.82a.29.29,0,0,0,.35,0,.28.28,0,0,0,.11-.33L9.91,8l4-2.82a.28.28,0,0,0,.1-.33.29.29,0,0,0-.28-.21H8.81L7.29.2A.31.31,0,0,0,7,0Z"/><g class="cls-3"><path class="cls-4" d="M7,0a.32.32,0,0,0-.28.2L5.19,4.65H.3A.29.29,0,0,0,0,4.86a.28.28,0,0,0,.1.33L4.09,8l-1.52,4.6a.28.28,0,0,0,.1.33.3.3,0,0,0,.36,0l4-2.82,4,2.82a.29.29,0,0,0,.35,0,.28.28,0,0,0,.11-.33L9.91,8l4-2.82a.28.28,0,0,0,.1-.33.29.29,0,0,0-.28-.21H8.81L7.29.2A.31.31,0,0,0,7,0Z"/></g></svg>